<svg xmlns="http://www.w3.org/2000/svg" width="853" height="859" fill="none" id="boy-cycling">
  <path fill="#fff" fill-rule="evenodd" d="M831.861 699.601c-12.879 165.024-237.71 188.717-282.592 29.712l-.028.011a85.465 85.465 0 0 0-.677-2.467l.029-.007c-3.983-15.575-5.467-32.434-4.336-48.757l.002.001c2.152-33.682 16.51-67.35 39.552-91.954l.002.003a147.825 147.825 0 0 1 21.014-18.756c14.236 42.926 34.88 81.311 61.044 113.238l-1.013 1.248c1.262.698 2.515 1.395 3.767 2.096.433.525.905 1.113 1.332 1.654-1.746 4.458 1.962 8.785 6.346 9.638-1.335 3.136 1.936 4.376 3.899 4.941 6.467 1.48 14.066 1.802 18.963-1.821 6.323-5.784 4.104-17.197-2.731-21.534.028-.073.052-.147.076-.222a4.545 4.545 0 0 1-2.424-.991c-3.418-1.32-7.408-1.307-10.757.171-22.735-36.93-45.536-77.067-58.153-120.821a143.016 143.016 0 0 1 16.497-6.991l-.004-.008c.152-.051.606-.204.749-.258l.001.004a139.793 139.793 0 0 1 16.006-4.465v-.005c.476-.098 1.471-.306 1.952-.408v.006c9.642-1.942 19.686-2.857 29.69-2.715v-.002l2.261.045-.001.009c3.399.094 6.895.345 10.309.673-.033.126-.086.29-.153.48.279.014.551.056.818.121l.117-.511c2.695.304 5.416.672 8.092 1.126l.001-.002 1.916.332-.001.007c34.348 6.06 66.713 26.431 87.795 54.341l-.002.001c8.898 11.588 16.049 24.5 21.274 38.408h.002l.839 2.275-.006.002c7.02 19.555 9.959 41.025 8.499 62.154l.034-.002ZM586.265 482.969c-51.641 49.149-108.924 94.872-152.647 151.67l-8.176-4.935.826-.158c-2.733-.271-5.259-2.825-7.283-4.487 4.359.306 5.747 1.115 8.344-3.859 9.098-16.344 16.945-33.019 26.757-49.152 8.027-14.223 16.06-28.311 24.083-42.679 4.238-6.19 11.322-22.668-.353-30.954 30.586-13.948 65.826-30.703 98.492-51.027 2.642 11.948 6.766 23.505 10.556 35.023l-.599.558ZM410.777 396.53c-4.378-4.022-9.196-7.904-11.394-13.737a140.3 140.3 0 0 0 20.919 1.876c.427 0 .82-.4.825-.845.152-8.603.139-18.072-.64-27.265 3.672 1.818 6.62-.257 9.944-2.039 3.482 2.6 7.078 1.829 11.333 0 .04-.012 17.194-6.362 17.232-6.368 3.826-1.196 5.467-2.336 6.43-4.766.495.132 1.493.393 1.988.52 4.107 6.089 63.717 24.994 69.016 17.983 5.543 2.351 12.171.448 18.039.028 4.587.386 9.25 1.417 13.83.836.905 4.745 1.82 9.491 2.738 14.232-12.308 17.926-14.14 26.045-10.633 47.582.758 4.456 2.228 5.952 7.717 6.6-32.616 17.846-65.415 34.948-97.622 54.031a1681.583 1681.583 0 0 0 13.374-32.561c1.521-3.311 3.558-8.176 3.721-12.706 1.26-16.823-51.277-32.25-71.858-37.818-.582-2.394-3.225-3.806-4.959-5.583Zm167.549 30.837c.236-.409 1.165-2.362 1.391-2.814.526.994 1.557 2.835 2.216 3.731-1.285.461-4.43 2.179-5.676 2.837l2.069-3.754Zm-182.962 85.654c-.554 2.242-1.057 4.371-1.543 6.417-12.168 6.339-24.269 12.133-36.478 18.344l.386.712c-6.909 4.04-14.425 6.485-21.212 10.681-5.304-22.868-9.349-46.032-12.355-69.379 2.801-.103 5.586-.366 8.416-.943 2.825.07 5.472-.242 7.721-.984a475.818 475.818 0 0 0 49.392 31.884c1.897 1.263 3.875 1.673 6.019 1.869l-.346 1.399Zm-1.972 173.387c-1.904-.188-3.629 1.807-5.464 2.462a607.246 607.246 0 0 0-16.726 8.988c-1.896-11.013-6.638-21.204-6.962-32.591l-.182.344c-.689-1.336-2.089-3.72-2.895-5.003 1.348.314 3.897.899 5.226 1.201l-.149.206c1.723-.296 4.073.796 5.703 1.007 5.909 1.117 11.946 2.262 17.94 3.133-1.542 2.402-1.459 2.531 1.395 2.537-1.632 3.271-2.011 7.232-1.855 10.678.047.626.3.501.619.747.632 1.798 1.872 3.037 3.978 3.824l-.628 2.467Zm-52.064-125.175-.535-1.67.664-.224c-.105-.261-.521-.41-.846-.344l-.06-.19c16.379-6.988 32.409-14.845 48.564-22.289-9.487 27.368-28.339 51.027-33.073 80.053l-2.497.163c-5.56-18.767-10.108-37.988-14.507-56.576l.783-.265c-.108.819.705 1.534 1.507 1.342Zm11.79 135.536c-1.778.604-3.928.82-5.909.617-8.612-1.659-17.386-3.014-25.945-4.354 4.868-46.67-10.703-94.22-42.449-128.459a7733.644 7733.644 0 0 1 37.71-34.04c12.504 60.639 26.717 120.5 37.706 165.862l-1.113.374Zm-52.983-18.386a160.038 160.038 0 0 1-.651 11.184c-35.47-5.537-73.588-11.295-111.891-15.878l1.707-1.84c2.147-2.637-1.465-6.969-3.601-8.178-4.01-2.388-8.505-1.486-12.942.626l-1.47-2.058c8.193-7.413 16.4-14.763 24.557-22.215 9.478 4.037 19.072 7.526 28.634 11.225l-.374 2.299c2.136.01 4.288-.27 6.333-.062 23.622 8.805 48.549 17.278 69.719 23.937l-.021.96Zm-2.331 23.346c-1.443 8.065-3.586 16.022-6.32 23.705l-.02-.011c-29.833 94.375-159.221 126.469-226.372 51.429-75.423-73.812-38.621-220.365 67.046-242.559 6.049 10.874 11.13 21.838 16.556 32.849 2.609 6.365 7.319 12.019 8.386 18.993a306.848 306.848 0 0 1 1.998 7.683c.104.048.207.095.312.141l-.023-.1 2.336-.967c4.67 8.025 10.641 22.093 15.958 30.651 6.888 10.363 6.554 9.61 11.682 10.203-6.094 6.046-12.283 12.19-18.378 18.228-5.406 5.25-10.513 11.924-18.648 13.42-2.645.244-4.89 1.091-6.462 2.874-.367 1.108-.917 2.148-1.541 3.142-2.79 10.492 11.583 18.649 19.083 9.763 45.152 6.918 89.466 12.139 134.638 19.268l-.231 1.288ZM201.077 515.38c18.081-.252 39.953 1.947 63.878.611 1.425-.381 3.061-.663 4.153-1.456 6.377 3.241 12.858 6.584 19.415 9.61-.505 2.841 2.571 4.534 3.551 7.019-8.001 7.525-16.234 14.884-23.826 22.936-19.167-17.381-42.541-29.93-67.509-36.198l.338-2.522Zm649.574 150.23c-9.128-74.653-74.982-141.017-150.695-144.912l-.382-2.471c3.611-1.404 6.78-4.297 9.423-8.6-23.937-2.395-48.644.427-70.66 8.528-4.087 1.583-8.522 3.156-13.055 2.564-.657-1.3-1.454-2.658-2.33-4.024a.64.64 0 0 1-.111-.027c-1.338-.473-2.622-1.123-3.273-2.45-.602-1.227-.582-2.704-.832-4.023a.764.764 0 0 1 .126-.603c-2.098-3.608-4.048-7.258-8.549-7.662l1.481-1.58c.621-.719.25-1.995-.815-2.214-6.017-21.733-13.373-42.555-19.089-64.425l-1.834.527c-.234-.596-1.685-4.205-1.952-4.873l3.244 2.252-.387-1.5c28.432 11.037 56.041 15.901 82.56 11.277l.014-.078c3.133-.949 6.074-2.3 8.508-4.023 1.537.114 1.948-.801 2.696-3.313 1.562-5.151 3.318-10.342 4.984-15.368 9.555-31.203 22.715-61.171 31.377-92.21.227-.187 1.019-.941.861-.982-34.119-19.895-116.241-13.854-160.769-7.183.773 12.008 3.074 23.764 5.297 35.192-16.17-11.469-31.618-24.964-51.033-30.72l4.57-.93c.748-.123 1.223-1.569.439-1.873l-.899-.322c1.672-12.965-12.942-14.49-21.122-8.108-1.79 1.479-3.786 6.573-.472 7.692l-.148 2.484c-2.724.41-6.217 1.946-9.131 3.436.654-3.961-.809-9.386-5.433-5.651-66.288-30.308-37.531-61.438-42.915-110.576-.343-14.754-2.121-15.681-16.164-22.292-8.102-4.942-16.813-8.403-25.203-12.749l.596-.595-3.374-6.735-.344.101c-1.278-3.082-2.262-6.207-2.841-9.452-.337-3.769-2.102-6.054-6.306-6.775-10.572-2.223-21.146-.521-25.383 10.636l-.053.009c-1.028 2.948-3.012 5.958-5.482 7.395l1.529 1.366-.192.351-2.4-.715c.006-.13.02-.31.031-.441-1.348.612-2.946 1.073-4.581 1.071-51.193-8.683-66.522 31.329-58.912 75.456-3.016 11.388-5.68 22.794-8.43 34.128-8.026 37.833-32.124 61.347-40.331 97.918-2.165 8.887-11.151 25.232-3.262 30.932-1.352 10.445 3.036 21.667 10.864 29.521-11.826.332-28.305 19.6-14.358 29.08 5.075 2.222 11.17 1.966 16.706 2.925l-.426 1.42c.227 1.26 2.349 1.179 3.373 1.054-.003 3.024-.388 6.324.848 9.002.137 1.528.764 2.027 1.076 1.922 2.042.066 4.114-.187 6.178-.067 3.124 5.028 7.798 8.203 12.632 5.635 2.941-1.53 2.891-5.617 5.674-7.689 7.286-4.57 15.563-3.818 23.264-3.696 3.191 10.699 4.629 21.558 7.139 32.358-3.291 4.129-7.056 8.318-11.377 12.704l-.564-.131-.572.177c-3.283-2.935-6.929-7.943-11.589-6.119-38.905-35.185-101.505-29.775-149.606-29.43-21.756.257-44.221.494-66.284 1.497-6.294.146-10.354.611-10.571 5.34-4.16.181-7.25 1.203-11.164 1.506-2.444.129-3.718.325-3.802 1.02.473 6.75.74 13.812 3.095 20.117 2.465 6.239 9.987 6.234 15.73 3.93 2.154-.923.297-3.589.234-5.221a84.344 84.344 0 0 1-2.375-16.43c2.715.213 5.09.34 8.218.381l.053 1.449c5.5.214 28.88.626 34.582-.169-2.339 2.825-3.245 5.725-.999 8.907 5.931 6.602 16.867 3.596 24.656 4.592l.121 2.526C7.312 539.398-39.399 705.716 49.589 791.34c87.02 94.468 253.399 38.216 270.218-87.504 7.24 1.215 14.517 2.176 21.738 3.708-4.264 3.879-10.388 5.841-14.573 9.554-7.26 7.063-9.412 11.703-6.084 15.345l.062-.051c2.666 1.482 5.918 1.357 8.892.349 1.883.256 3.839.551 5.712.552 3.045-.063 5.924-.826 6.728-3.231.089-.914-1.663-2.47-2.516-3.233 4.695-3.275 9.416-7.037 14.804-10.586 1.319-.658 1.941-1.31 2.402-2.467 23.169 8.282 47.426-9.425 62.197-22.57l-.052.23c1.794-1.765 3.68-3.482 5.725-3.785a14.783 14.783 0 0 1 2.008-1.696l10.92.387c2.943.105 6.864.748 9.537-.243 6.19-2.976 3.543-12.098.395-16.301 4.961-.295 9.996-.212 14.923-.876 12.628-1.477 9.038-14.105-1.086-16.963-2.806-3.614-15.271-7.445-15.613-11.985 47.008-49.898 97.8-97.449 144.876-144.598 1.548 5.08 1.873 10.503 1.922 15.636.007 12.346 3.288 24.571 6.267 36.362-108.795 68.666-94.406 248.171 25.253 296.974 117.236 53.66 244.589-56.216 226.407-178.738Z" clip-rule="evenodd"></path>
  <path fill="#000" fill-rule="evenodd" d="M709.147 509.041c-2.395 3.945-5.658 7.528-10.141 9.271 62.001 4.02 117.456 46.821 140.048 103.451 56.59 133.348-75.472 283.021-216.351 222.655-121.347-51.973-135.306-226.43-26.212-298.716-2.398-9.414-4.825-18.992-5.769-28.667-.209-2.359-.262-4.731-.314-7.103-.097-4.434-.195-8.865-1.322-13.195-46.866 46.115-93.729 92.242-140.031 138.903l-1.579 1.602c-.091.093-.2.192-.315.298-.435.399-.964.884-.987 1.385.523 2.019 4.624 4.294 8.476 6.431 2.884 1.6 5.629 3.123 6.629 4.404 11.159 3.72 14.579 17.302.495 19.322-3.132.434-6.3.543-9.464.651-1.135.04-2.271.079-3.403.133 2.95 4.755 4.074 13.653-2.16 16.315-2.366.865-5.172.661-7.792.471a61.32 61.32 0 0 0-2.264-.138l-10.465-.371c-5.454 4.111-6.001 10.746-6.537 17.264-.238 2.889-.474 5.755-1.135 8.368-2.559 19.124-15.828 31.759-35.735 31.763-21.915 1.535-44.576.359-65.82-5.406-.073.113-.219.215-.361.163-2.712-1.649.223-5.159 1.82-6.642-4.427-5.402 2.666-12.836 6.594-16.588 1.955-1.847 4.401-3.172 6.853-4.5 1.944-1.053 3.89-2.107 5.597-3.425-3.874-.774-7.783-1.38-11.691-1.987a538.756 538.756 0 0 1-5.978-.95c-20.618 126.898-180.439 182.016-272.185 86.936-89.017-88.518-44.876-251 81.058-276.919-2.237-.243-4.717-.211-7.259-.179-6.773.086-13.99.177-18.268-4.894-1.69-2.301-2.229-5.756-.603-8.143-3.05.314-54.217.391-32.042-1.555-2.283-.033-4.56-.111-6.83-.277.139 2.263.357 4.523.675 6.769.38 2.707.98 5.347 1.581 7.995.26 1.149.522 2.299.765 3.456.303 1.434-.423 2.851-1.892 3.276-6.454 2.416-14.168 2.526-17.277-4.682-2.205-5.876-2.634-12.304-3.052-18.552a580.09 580.09 0 0 0-.139-2.04c.078-2.04 2.672-2.177 5.02-2.302 1.125-.059 2.193-.116 2.9-.377 2.402-.506 4.789-.821 7.213-1.036.775-5.165 6.767-5.313 11.658-5.433 1.194-.03 2.323-.058 3.295-.157 20.984-.855 41.99-1.098 62.994-1.341 5.529-.064 11.058-.128 16.586-.203l2.903-.044c44.841-.68 94.991-1.441 130.462 29.535 4.165-1.189 7.473 2.062 10.287 4.827.45.443.888.873 1.315 1.271a.74.74 0 0 1 .393-.013c3.635-3.714 7.136-7.553 10.4-11.612-.889-3.875-1.649-7.784-2.409-11.693-1.246-6.413-2.492-12.827-4.313-19.094l-.26-.007c-6.974-.199-15.228-.434-21.228 3.447-1.186.955-1.829 2.298-2.469 3.633-.803 1.676-1.601 3.342-3.463 4.218-5.586 2.979-10.943-.957-13.893-5.536-.907-.029-1.806.009-2.703.047-.936.039-1.871.079-2.811.042-1.579-.088-2.065-1.425-2.27-2.849-1.018-2.339-.968-4.888-.92-7.365l.011-.628c-1.476.089-3.794-1.126-3.296-2.784-1.448-.211-2.917-.356-4.388-.501-3.852-.38-7.72-.762-11.262-2.341-14.144-8.661-.384-29.012 12.427-31.1-6.874-7.591-10.721-17.899-9.68-28.075-6.026-4.854-2.002-16.14 1.097-24.83.944-2.647 1.801-5.053 2.263-6.964 3.174-14.58 9.77-28.056 16.31-41.416l.299-.61a914.69 914.69 0 0 1 5.702-10.789c8.077-15.109 13.702-25.631 18.015-45.078.625-2.575 1.245-5.152 1.865-7.729 2.106-8.752 4.212-17.505 6.512-26.205a916.27 916.27 0 0 0-.481-3.544c-1.043-7.61-1.497-10.92-1.073-20.034 1.123-36.892 19.147-59.04 61.95-53.064 5.422-.363 8.316-3.978 9.91-8.767.147-.33.657-.086.572.237-.715 3.317-1.813 7.089-4.819 9.047-1.496 17.512 26.888 23.362 38.869 14.677 3.664-2.278 4.62-4.295 4.705-8.439-1.641-2.008-1.929-4.488-2.217-6.969-.154-1.33-.308-2.661-.672-3.918l4.43 8.841c2.658 1.348 5.351 2.619 8.042 3.889 5.285 2.493 10.563 4.984 15.554 8.046 14.253 6.735 16.524 7.909 16.893 23.336 1.322 14.833.281 27.46-.636 38.595-2.443 29.633-4.013 48.692 42.149 70.617 4.25-2.971 7.186.809 6.956 5.023 2.403-1.169 4.816-2.107 7.504-2.591-4.36-1.331-2.658-7.641.044-9.914 8.83-6.707 24.002-5.479 23.258 8.223 2.03.727 1.408 3.92-.616 4.332 13.475 4.691 24.937 13.183 36.29 21.593 2.68 1.985 5.353 3.965 8.045 5.89-2.113-10.89-4.098-21.853-4.747-32.891-.167-.058-.198-.313-.023-.388-.293-1.827.442-2.113.92-.224 33.313-6.005 67.514-6.23 101.292-5.779 18.21.228 36.537 2.653 53.466 9.516.435.224 1.128.484 1.925.781 3.119 1.166 7.826 2.925 4.844 5.53-.603 3.793-1.868 7.48-3.122 11.138-.214.625-.428 1.249-.638 1.873l-1.481 4.117c-8.718 24.246-17.435 48.489-25.491 72.958l-.636 1.909c-1.613 4.843-3.227 9.686-4.742 14.56-.072.23-.142.472-.213.72-.554 1.916-1.22 4.217-3.527 4.235-2.379 1.624-5.03 2.843-7.779 3.727-5.219 29.941-29.486 52.145-51.141 71.96l-.404.369c1.07 1.57 2.087 3.194 2.972 4.879 4.116.363 7.972-1.099 11.789-2.547 1.886-.716 3.763-1.428 5.658-1.914 20.957-6.799 43.681-8.863 65.595-6.691.859.086 1.582.965 1.046 1.795ZM577.87 800.811c75.94 80.898 212.188 50.649 251.431-50.749 53.968-127.157-74.226-269.344-207.113-207.163l.067.231a580.977 580.977 0 0 0 1.918 6.523c74.84-38.012 170.027 2.441 199.214 78.837 50.779 119.626-67.558 254.082-194.03 199.924-106.645-45.14-121.372-198.901-27.851-265.142a333.773 333.773 0 0 1-2.101-6.945c-79.196 54.314-89.242 177.356-21.535 244.484Zm131.68-105.847a728.998 728.998 0 0 1-6.464-5.313 14.572 14.572 0 0 1-1.218 4.597c2.562.232 5.122.474 7.682.716Zm-11.363-2.959c-.097.174-.2.345-.308.514l.014.042a.49.49 0 0 0 .015.046c.1-.199.192-.398.279-.602Zm-.638 1.026c-.179.267-.369.532-.571.789l.159.015c.164-.209.315-.429.451-.655l-.039-.149Zm-8.405-2.729c-.013.231.003.307.026.307.041 0 .113-.27.059-.28l-.012-.004-.073-.023Zm-2.318-8.487c.999 1.214 2.048 2.489 2.416 4.039.236 1.005.156 1.937.053 2.92.499-.392.957-.931 1.42-1.476 1.172-1.381 2.376-2.798 4.341-1.954.352-4.889-5.614-8.347-10-6.812-.045.051-.192.31-.149.401.366.994 1.127 1.919 1.919 2.882Zm-3.715 12.468c0-.196.034-.398.103-.584-1.031.889-2.28 1.449-3.624 1.723.339.107.692.202 1.036.295.371-.788 1.544-1.146 2.426-1.416l.059-.018Zm-3.249-17.854c-.801.253-1.701.539-1.691 1.292.299-.047.042.297-.105.312.639.147 1.27.356 1.88.615.015-.844.322-1.811.731-2.52-.22.112-.51.204-.815.301Zm-6.109 7.821c.298.445.596.89.877 1.346 1.571 2.677-2.449 5.015-4.265 2.468.105.332.238.65.397.945.123-.101.224.088.083.146 1.386 2.388 4.362 3.328 7.101 3.281-.147-1.888.07-1.913.19-.013 7.151-.926 5.946-12.611-5.794-11.106a5.529 5.529 0 0 0-.228.207c.464.971 1.052 1.849 1.639 2.726Zm-70.61-115.882a145.86 145.86 0 0 0-20.333 18.531c17.423 19.741 34.402 39.921 51.374 60.093 6.386 7.59 12.771 15.179 19.178 22.742.72.853 1.451 1.701 2.184 2.55 1.819 2.107 3.644 4.221 5.3 6.44.993.545 1.989 1.084 2.998 1.603-27.135-33.154-47.131-71.651-60.701-111.959Zm-58.726 110.114c-.984 16.148.593 32.6 4.673 48.052 24.599-8.912 49.466-17.13 74.328-25.347 12.002-3.967 24.002-7.933 35.971-11.977-20.358-4.296-41.104-5.242-61.859-6.189-17.777-.811-35.561-1.622-53.113-4.539Zm89.897 20.679c-24.541 8.11-49.084 16.22-73.715 24.062-.866.277-1.734.562-2.604.848-2.927.962-5.875 1.932-8.861 2.622 45.397 159.092 264.957 136.198 280.279-26.845-38.841 1.987-77.854.943-116.526-3.324 20.809 15.92 42.204 31.09 63.586 46.251 8.74 6.196 17.477 12.391 26.172 18.636.538.484-.152 1.242-.745.948-31.387-20.283-61.405-42.867-90.675-66.037a318.642 318.642 0 0 1-9.711-1.338 11.552 11.552 0 0 1-1.957 2.704c12.897 42.405 22.047 86.115 26.549 130.16.046.675-1.083.824-1.204.158-6.3-43.658-14.609-87.026-26.014-129.698-5.591 4.068-13.538 3.472-19.998 2.036 3.926 44.158 7.345 88.42 9.985 132.657-.064.976-1.6 1.293-1.819.242-3.718-44.274-6.305-88.7-8.745-133.073-2.46-.761-5.184-2.438-4.558-5.146-2.259-.698-4.23-2.214-5.386-4.125-1.217 1.797-2.438 3.59-3.659 5.383-2.479 3.643-4.958 7.284-7.401 10.95l1.488-1.182c4.341-3.447 8.685-6.898 13.155-10.164.523-.383 1.141.081 1.257.606-3.005 3.395-6.94 6.228-10.871 9.058-2.785 2.005-5.569 4.009-8.019 6.211-18.926 28.83-35.321 59.268-48.757 90.938-.559 1.323-2.78.758-2.224-.602 12.233-30.35 27.737-59.373 45.995-86.639-8.167 6.221-16.376 12.557-24.6 18.905-16.674 12.871-33.409 25.789-49.974 37.882 19.697-15.731 39.525-31.31 59.37-46.86l8.476-6.626 9.541-7.459c4.481-6.528 9.164-12.921 14.138-19.076a5615.467 5615.467 0 0 0-23.193 14.729c-23.608 15.045-47.261 30.119-71.438 44.029-.611.134-.929-.521-.573-.968 18.474-12.363 37.703-23.901 56.901-35.421 13.435-8.061 26.855-16.113 39.99-24.433-.772-1.615-1.003-3.467-.459-5.365a71.212 71.212 0 0 0-.756-.935c-35.024-19.601-72.789-37.279-109.443-51.775 34.153 11.92 67.181 26.835 98.876 44.091a8406.414 8406.414 0 0 0-23.412-28.205c-16.832-20.218-33.668-40.441-50.062-60.966-22.722 24.896-36.314 57.74-38.283 91.273 16.194 2.05 32.58 2.537 48.962 3.023 24.44.727 48.872 1.453 72.646 7.367 1.123.374.649 1.878-.48 1.709a77.297 77.297 0 0 1-3.303-.577c-2.508 1.048-5.113 1.877-7.712 2.703-.944.301-1.887.601-2.824.911-5.803 1.913-11.604 3.83-17.405 5.747Zm164.278-103.472c-30.666 27.046-62.522 53.213-96.203 76.503-2.911.006 1.316-3.044 3.353-4.513.44-.317.778-.561.919-.684 31.355-22.875 61.711-47.032 91.749-71.543-21.223-27.408-52.508-46.951-86.837-52.984l-.269 2.027c-5.227 39.403-10.456 78.819-13.381 118.468 17.596-34.412 37.007-69.466 60.284-99.892-20.462 33.639-40.89 67.341-58.376 102.596-.43.854-.849 1.729-1.27 2.608-.408.854-.819 1.713-1.246 2.563a27.502 27.502 0 0 0-.108 1.514c-.052.975-.104 1.956-.346 2.876 4.343 3.228 6.662 8.79 6.256 14.071 2.619 1.927 5.235 3.86 7.848 5.801l.655.062c4.488.426 8.974.851 13.467 1.228 34.718 2.968 69.638 3.454 104.439 1.852 1.446-21.264-1.559-42.819-8.851-62.606a1732.067 1732.067 0 0 0-117.284 39.791c-1.018.325-1.708-1.265-.731-1.706 38.485-15.04 77.941-27.74 117.951-38.261-5.273-14.323-12.733-27.838-22.019-39.771ZM642.45 547.614c2.273 4.471 4.341 8.989 6.289 13.599.809 1.607 3.35 8.689-.795 6.737-1.429-1.518-2.275-3.531-2.981-5.452-1.733-4.665-3.243-9.378-4.473-14.201a140.084 140.084 0 0 0-14.814 6.253c12.386 42.385 34.124 81.106 57.164 118.584 3.241-1.19 6.984-1.142 10.201.046 2.229-4.073 2.356-6.351 2.577-10.342.027-.485.056-.995.089-1.536 3.386-39.807 7.389-79.714 15.174-118.957a138.292 138.292 0 0 0-7.504-1.089l-.223.949c-.519 2.208-1.057 4.492-1.224 6.755-.036.393-.274.857-.721.93-4.735.28-2.387-6.208-1.436-8.835l.062-.17a140.646 140.646 0 0 0-9.611-.544c-3.143 42.623-4.646 85.322-5.093 128.04-.039.731-1.113.728-1.155 0-.664-42.704 1.472-85.562 5.9-128.05-10.465-.21-20.924.735-31.037 2.83 5.806 38.985 12.458 77.844 19.746 116.573.072.716-1.036.799-1.229.164-8.021-38.546-14.467-77.519-19.12-116.611a137.469 137.469 0 0 0-15.786 4.327Zm-47.282-37.45c.182 4.211.363 8.422 1.156 12.586 10.633 57.686 37.037 112.081 74.267 157.753.007-.002.015-.002.025-.002-.743-3.285 4.794-3.059 6.874-2.591-.694-1.081.928-2.203 2.061-2.985.294-.204.556-.385.735-.536-31.627-39.268-66.308-119.47-68.616-169.446 0-.368.579-.459.659-.088 2.054 9.367 4.439 18.677 6.999 27.936 21.907-10.186 45.655-15.242 69.902-14.902 1.21-.567 2.351-1.123 3.285-2.019.618-.298 1.172-.425 1.752-.557.219-.05.441-.101.671-.162 1.314-.77 2.759-1.341 4.203-1.912 2.436-.964 4.866-1.925 6.644-3.833-19.624-1.76-39.575-.045-58.585 5.054-6.883 2.33-13.787 4.596-20.801 6.524.251.39.435.843.618 1.296.308.76.616 1.519 1.242 1.982 1.333 1.132.243 3.055-1.178 3.473-2.372.701-3.308-1.656-3.801-3.404-1.101-3.916-2.394-7.831-4.385-11.407-.61-1.104-1.156-2.262-1.704-3.422-1.573-3.333-3.155-6.686-6.275-8.869-1.17.294-2.392.276-3.609.258a30.744 30.744 0 0 0-1.636.005c-2.491.038-4.965.4-7.43.761-1.194.174-2.386.349-3.576.486.273 2.666.388 5.343.503 8.021Zm-4.186-23.439c.735 2.385 1.471 4.77 2.141 7.174a58.155 58.155 0 0 1 1.27 6.177c3.985-2.648 8.812-3.843 13.565-4.244-2.623-9.738-5.571-19.461-8.518-29.177-3.667-12.093-7.331-24.175-10.357-36.257a2.202 2.202 0 0 1 .012-.405l-.265-.14c-2.647-1.4-4.614-2.44-7.784-1.609-1.897.382-3.487 1.264-3.825 3.199a.572.572 0 0 1-.455.491c3.841 12.494 7.654 25.041 9.92 37.943.876 5.759 2.585 11.301 4.296 16.848Zm-90.881 94.42c10.67-10.794 21.342-21.589 32.096-32.303a5669.47 5669.47 0 0 1 56.056-55.346c-.751-2.549-1.549-5.079-2.347-7.612-.44-1.396-.88-2.794-1.313-4.195-19.803 21.45-41.144 41.614-62.486 61.779-30.316 28.644-60.634 57.291-86.55 89.626a2.667 2.667 0 0 1-.315.345c.706-.011 6.595.694 3.518.82.883.22 1.497 1.336.595 1.862l2.19 1.322 2.185 1.319c.292-1.906 2.334-3.765 4.251-5.509 1.026-.933 2.016-1.834 2.682-2.692 16.673-16.272 33.054-32.843 49.438-49.416Zm-39.753 71.154c-.477-.32-.971-.652-1.062-1.224-7.964-4.817-15.926-9.635-23.886-14.458-1.018.22-2.14.258-3.269.297-2.541.086-5.114.174-6.595 2.341.059.361-.074.757-.421.925-.7.76-2.343.496-2.393-.902.108-3.272 5.125-4.972 7.844-5.589l-6.332-3.835c-2.576.572-5.108 1.34-7.585 2.241-.286.104-.593.246-.911.393-.855.396-1.791.83-2.625.649a2.038 2.038 0 0 0-.185.25l.162.07c.168.073.321.139.415.163 1.033.288.774 1.737-.247 1.787-1.59.078-4.16-.35-3.627-2.553 1.38-3.094 7.307-4.396 10.641-5.128l.332-.073c-.47-.283-.944-.572-1.424-.865-4.948-3.017-10.409-6.347-16.301-5.816-.88.614-1.95.57-2.942.272-3.831.8-7.293 2.749-10.462 4.955-2.33 1.413-4.403 3.297-6.475 5.18-3.477 3.16-6.95 6.316-11.63 7.239-6.342.855-14.617-5.616-16.094-11.336a2.722 2.722 0 0 1-.421-.096c-1.971 6.35-1.908 12.999-1.726 19.542 11.128.703 22.248 1.588 33.369 2.473 17.041 1.356 34.087 2.712 51.17 3.417 5.259.257 10.517.489 15.778.695 2.476.122 4.9.083 7.226-.79-.104-.076-.214-.149-.324-.224Zm-107.29-4.921c-.025.189-.058.379-.093.568.708-.127 1.436-.151 2.165-.146-.722-.088-1.436-.209-2.072-.422Zm106.869 18.521c9.863-.368 10.611-7.404 2.567-12.157-.999.601-2.306.668-3.474.729-.324.016-.637.033-.93.059-.468 1.451-5.178 1.062-8.876.756-1.674-.138-3.141-.259-3.913-.185-14.769-.335-29.489-1.609-44.201-2.883-14.913-1.291-29.818-2.581-44.756-2.892-.176-.001-.357-.004-.542-.007-1.538-.026-3.336-.057-4.131 1.135-.022 3.061.717 5.563 4.172 6.007 22.365 5.505 45.227 8.91 68.254 9.856 11.898.457 23.954.582 35.83-.418Zm-17.007 13.699c-.002-.793-.005-1.585.005-2.379.006-.34.037-.746.07-1.176.045-.584.093-1.212.084-1.777-4.088-.418-8.179-.827-12.278-1.13.211.452.316.946.29 1.427.684.627 1.068 1.604.931 2.55.496.779.667 1.738.416 2.591a162.9 162.9 0 0 0 10.482-.106Zm-89.865 30.174c23.752 10.73 47.335-6.398 64.674-21.169a14.657 14.657 0 0 1 1.711-2.702c-3.178-.241-6.338-.279-9.491-.316-5.635-.067-11.246-.133-16.883-1.367 2.393 2.517-1.162 3.675-3.76 4.521-.699.227-1.328.432-1.754.635a596.128 596.128 0 0 1-16.347 6.16c1.947 17.766-15.152 14.753-19.076 1.045-1.205.296-2.429.39-3.674.335a1.14 1.14 0 0 1-1.078.427c-4.366-.625-8.716-1.378-13.065-2.131-2.18-.377-4.36-.755-6.541-1.116-3.602-.548-7.198-1.163-10.794-1.778-6.62-1.132-13.242-2.265-19.909-2.982.008-.071.015-.144.02-.214-10.799-1.603-21.596-3.273-32.395-4.942-31.636-4.892-63.292-9.787-95.109-13.022-1.515-.147-2.793-1.276-2.562-2.888-.005.005-.01.007-.015.01-.181 1.055-.286 2.15-.391 3.25-.332 3.463-.669 6.98-3.4 9.504 59.663 5.319 119.067 13.978 178.069 24.033 3.436.881 6.604 2.338 9.791 3.803.658.303 1.317.606 1.979.904Zm32.99 29.092c19.891-.957 26.794-16.443 28.421-33.799.138-1.078.254-2.201.371-3.347.276-2.675.564-5.477 1.178-8.138-16.064 13.647-37.32 27.533-59.424 20.633-.468.922-1.458 1.486-2.419 2.034-.423.241-.84.479-1.205.743a4080.624 4080.624 0 0 1-12.218 8.856c1.46 1.357 2.615 3.234.995 4.942-3.204 3.473-8.199 2.787-12.553 2.189l-.271-.037c-2.807.887-6.066 1.134-8.81-.151-1.461 1.214-3.016 2.758-3.056 4.713.218-.199.271-.036.193.173l.255.019c22.775 1.657 45.749 3.328 68.543 1.17Zm-58.408-23.362c-3.463 3.275-6.951 7.316-7.904 12.06-.28 2.365 1.836 2.966 3.771 2.793.328-.451 1.23-.619 1.767-.336 1.175-.345 2.299-.894 3.38-1.431 8.776-4.265 17.08-9.432 24.558-15.643-1.032-.332-2.449-1.017-3.995-1.766-3.311-1.602-7.216-3.492-9.205-2.815a164.061 164.061 0 0 0-3.108 1.963c-2.979 1.911-5.955 3.821-9.264 5.175Zm-272.225 68.3c73.639 77.704 205.975 49.077 244.347-48.851a154.73 154.73 0 0 0 9.438-32.434 3438.29 3438.29 0 0 0-8.62-1.341C281.72 813.79 143.095 864.203 61.25 778.314c-76.508-77.217-41.756-221.945 67.229-248.361a26.371 26.371 0 0 1-1.167-4.562c-115.387 26.824-153.95 176.845-71.9 258.411Zm204.584-224.67c-26.795-24.048-62.216-37.861-98.519-37.73-11.267 0-22.344 1.255-33.142 3.748.395 1.532.944 3.009 1.595 4.448 44.467-10.87 93.199 2.725 126.032 34.148 1.015-1.008 2.034-2.017 3.051-3.025.064-.394.34-.741.609-1.08.135-.17.269-.338.374-.509ZM120.789 510.96c2.334-.049 4.533-.096 6.338.089 11.486.412 22.858.202 34.35-.232 24.94 1.364 49.873 1.742 74.829 2.12 9.022.137 18.048.274 27.078.457.098-.145.223-.276.375-.388-10.777-6.269-22.419-12.282-35.158-12.979-26.79-1.11-53.646-.462-80.494.186-14.943.36-29.884.721-44.81.778-.897 1.739-.582 3.854.475 5.535 3.004 4.731 10.53 4.572 17.017 4.434Zm-57.178-13.507c7.118-.765 14.29-1.169 21.452-1.351 47.148-1.1 94.395-2.199 141.534-.708 5.835.514 11.398 1.756 16.832 3.669a65.848 65.848 0 0 1 9.406 3.302c2.606 1.113 5.022 2.556 7.439 4 2.321 1.386 4.642 2.772 7.134 3.868 2.046 1.023 4.1 2.034 6.155 3.045 4.976 2.449 9.956 4.9 14.827 7.529 1.301.701 1.12 2.084.298 2.846.49.829 1.128 1.556 1.763 2.28.168.191.335.382.5.575a85.554 85.554 0 0 1 2.15-1.682c1.126-.862 2.254-1.725 3.311-2.674-.476-.411-1.042-1.007-1.669-1.669-2.249-2.37-5.287-5.571-7.82-4.051a.432.432 0 0 1-.477.025c-37.306-29.918-88.191-30.172-134.457-28.797a6054.67 6054.67 0 0 0-72.948.987c-1.155.18-3.067.135-5.236.085-5.365-.125-12.3-.287-13.215 2.819 3.018-.063 3.018 2.962 3.019 5.275 0 .216 0 .426.002.627Zm-3.22 17.523c-.31.978-.973 1.64-1.75 1.948a14.95 14.95 0 0 0 2.132-.472c-.136-.488-.262-.98-.382-1.476Zm227.692 12.927c-.794-.981-1.589-1.965-1.858-3.182a3.796 3.796 0 0 1-.053-.884c-5.436-2.528-10.786-5.251-16.132-7.973l-1.914-.974c-.726.435-1.8.704-2.796.954l-.551.139c-.256.464-.733.8-1.438.787a83583.84 83583.84 0 0 1-63.323-1.217c24.892 6.255 48.03 18.599 67.125 35.657 5.548-5.825 11.448-11.309 17.349-16.794 1.652-1.536 3.304-3.072 4.949-4.615-.365-.669-.861-1.283-1.358-1.898Zm-127.774 80.124c-1.725-7.618-3.45-15.233-5.518-22.733-.626-4.242-2.752-8.089-4.883-11.946-1.242-2.247-2.485-4.498-3.435-6.832-1.36-2.754-2.698-5.509-4.035-8.261-3.853-7.928-7.691-15.827-11.982-23.594a127.54 127.54 0 0 0-8.187 2.278c9.562 29.708 18.375 59.675 27.182 89.62 2.382 8.102 4.765 16.201 7.161 24.294l.189-.033c3.321-.576 6.807-1.182 9.483-3.334 1.475-1.187 3.578.779 2.303 2.024-3.135 2.665-7.223 3.449-11.276 4.227-5.013.962-9.975 1.914-13.02 6.401-1.185 1.902-1.621 4.332-.347 6.121 1.696-2.238 4.508-2.877 7.166-3.241 6.266-1.133 10.83-5.825 15.153-10.269.931-.958 1.852-1.904 2.775-2.801 4.933-4.887 9.864-9.779 14.794-14.671l1.624-1.611c-5.698-.515-14.058-17.639-20.139-30.096-2.344-4.801-4.349-8.908-5.732-11.104 1.199 5.245 2.469 10.479 3.74 15.713 2.875 11.849 5.752 23.703 7.814 35.706.067.569.073 1.136.078 1.703.005.492.01.984.055 1.477.013.113-.153.118-.19.026-4.787-12.637-7.781-25.854-10.773-39.064Zm44.779 111.075c-3.125-1.841 2.63-4.587 4.309-2.818.077.056.1.137.085.204 21.374-.027 42.712 1.371 63.966 3.534 2.785.287 5.566.615 8.343.965.894.176 1.823.261 2.754.346 1.802.164 3.611.328 5.184 1.161a145.969 145.969 0 0 0 5.779-22.099c-23.341-3.67-46.75-6.872-70.159-10.074-20.858-2.853-41.716-5.706-62.526-8.891-9.075 9.337-24.577-.399-20.47-12.361-5.042-4.737-.92-12.526 4.414-15.189 2.619-1.48 5.507-2.223 8.441-2.775-2.855-9.626-5.739-19.247-8.624-28.87-8.489-28.319-16.982-56.652-24.749-85.16-99.787 30.818-128.31 165.569-56.85 237.786 69.417 74.194 191.127 43.723 223.79-49.695-2.792-.252-5.586-.506-8.381-.76-22.3-2.029-44.679-4.064-67.093-4.78-.66-.029-1.326-.049-1.995-.069-2.081-.063-4.187-.127-6.218-.455Zm101.943-203.024c-.533.478-1.065.953-1.579 1.434-21.577 20.934-42.828 42.192-64.08 63.452-13.905 13.91-27.81 27.82-41.807 41.639-5.234 4.886-10.229 10.069-15.227 15.255-8.56 8.882-17.127 17.773-26.919 25.19-1.387.779-2.882 1.412-4.429 1.808-.503.109-1.027.198-1.556.289-2.321.398-4.746.814-6.056 2.941-5.313 8.955 5.754 19.099 14.439 12.868-.128.01-.437-.097-.197-.196 2.329-.609 3.851-3.776 4.283-6.006-3.296 1.748-5.277-1.497-6.94-4.222-.431-.707-.841-1.379-1.247-1.919-.796-.053-1.603.097-2.438.251-.299.055-.6.111-.906.159-4.258-.148-1.134-3.908 2.99-2.674 2.03-.274 4.086 1.168 5.72 2.327.404.265.849.467 1.292.668.708.322 1.411.642 1.934 1.212a22.79 22.79 0 0 1 .224-1.949c-1.804-.509-2.863-2.665-2.198-4.382.248-1.193 1.446-2.178 2.721-2.198-.072.013-.141.023-.211.036.108-.01.742-.108.715-.122.641.058 1.485.248 1.804.822 26.646-24.893 53.751-49.338 80.857-73.783 22.042-19.878 44.085-39.757 65.883-59.879-1.163-5.51-2.316-11.02-3.465-16.53-1.085 1.253-2.352 2.386-3.607 3.509ZM165.54 661.937c.01 0 .016.001.019.002l-.019-.002Zm29.525-21.522a60641.283 60641.283 0 0 1-17.191 15.6c14.784-3.206 30.037-3.964 45.107-4.68-2.614-1.012-5.236-2.009-7.86-3.007-6.723-2.558-13.452-5.119-20.056-7.913Zm-23.909 21.625c4.376-2.153 9.764-3.278 14.122-.602 2.968 1.613 6.785 7.096 3.929 10.174 36.135 4.368 72.129 9.766 108.083 15.371.28-3.226.457-6.47.529-9.736-19.184-6.039-38.217-12.559-57.142-19.352a1338.45 1338.45 0 0 1-11.723-4.317c-2.332.04-4.666.1-6.997.179-8.973.18-17.912.956-26.849 1.732-6.062.526-12.122 1.052-18.192 1.392-.652.588-1.325 1.17-2 1.755-1.276 1.104-2.565 2.22-3.76 3.404Zm139.808 27.115c.228-2.598.395-5.209.495-7.833a323.995 323.995 0 0 1-8.549-2.495 157.465 157.465 0 0 1-.541 8.959c2.865.452 5.73.908 8.595 1.369ZM266.86 575.13c23.879 27.681 36.68 64.051 36.118 100.59a397.83 397.83 0 0 0 8.574 2.482c.907-39.263-13.373-78.329-39.87-107.463-1.608 1.465-3.216 2.926-4.822 4.391Zm12.731-11.578c12.729 14.03 22.858 30.03 30.147 47.651 10.38 24.949 14.43 52.575 11.883 79.643l.218.034c8.21 1.285 16.431 2.571 24.58 4.141 1.771.138 3.567-.005 5.257-.573-13.068-53.973-25.728-108.164-36.988-162.58a7736.194 7736.194 0 0 0-35.097 31.684Zm75.056 131.995c.097.395.216.795.351 1.173-.05-.162-.1-.324-.148-.487-.069-.228-.136-.457-.203-.686Zm37.196-20.347c1.999-5.289 7.894-7.53 11.375-2.214 4.676 9.896-13.572 11.48-11.375 2.214Zm-4.736 3.088c-.056-3.179.043-6.52 1.252-9.479-1.343-.039-2.266-1.653-1.588-2.787a335.019 335.019 0 0 1-15.83-2.828c-.469.012-1.248-.207-2.106-.449-2.061-.58-4.579-1.289-4.357.769.072 6.9 1.932 13.486 3.791 20.072 1.048 3.71 2.095 7.42 2.823 11.187a591.095 591.095 0 0 1 15.269-8.176c.708-.279 1.384-.708 2.06-1.138 1.29-.818 2.583-1.639 4.114-1.428-2.011-.756-3.691-2.013-4.55-4.135-.501-.29-.862-.824-.878-1.608Zm-23.923-16.77-.38-.085c.072.119.139.241.206.363.051-.097.11-.189.174-.278Zm-42.628-183.466c-4.399-.468-8.795-.98-13.189-1.501 3.59 18.712 7.873 37.272 12.157 55.832 4.521 19.589 9.043 39.18 12.748 58.949l.566 2.817c6.786 33.77 13.586 67.608 23.602 100.626.15.478.293.961.437 1.447.821 2.764 1.656 5.579 3.816 7.662 2.614 1.977 5.847 2.292 7.403-.809.531-1.854.162-3.702-.214-5.583-.058-.291-.117-.583-.172-.875-1.003-4.829-1.829-9.722-2.655-14.615-1.192-7.067-2.384-14.13-4.11-20.991-11.09-2.112-12.926-3.849-12.249-15.102l.008-.123c.267-4.494.537-9.028 1.409-13.449.561-2.658 1.52-5.267 2.728-7.767.052-1.552.154-3.1.306-4.639-2.513.029-3.137-2.611-3.696-4.979-.213-.9-.416-1.761-.711-2.421l-.382-1.282c-.619-2.079-1.238-4.158-1.846-6.238-12.292-41.509-21.555-83.977-25.956-126.959Zm19.455 80.828c.031-.02.064.02.049.047-.221.427-.647.182-.806-.173 4.477 18.919 8.961 37.851 14.489 56.507 2.749-17.325 10.704-32.886 18.659-48.446 4.863-9.512 9.726-19.024 13.398-28.939a2598.219 2598.219 0 0 0-12.688 5.935c-11.004 5.17-22.038 10.355-33.101 15.069Zm10.56-16.907a2775.35 2775.35 0 0 0-13.039 6.909 1.072 1.072 0 0 1-.518.033 882.535 882.535 0 0 0 2.178 9.577c.03-.623.882-1.045 1.504-1.354.166-.082.316-.157.429-.224 5.245-2.987 10.665-5.662 16.08-8.335l1.795-.887c2.654-1.302 5.306-2.61 7.958-3.917 6.735-3.322 13.469-6.643 20.247-9.875 1.578-4.679 2.789-9.461 3.947-14.262-13.238 7.907-26.922 15.127-40.581 22.335Zm-25.383-59.04c.172 1.346.342 2.678.734 3.988 1.041 15.401 4.334 30.596 7.618 45.746.968 4.466 1.935 8.928 2.843 13.39 3.136-1.834 6.444-3.337 9.754-4.843 3.359-1.527 6.721-3.055 9.908-4.93-6.137 3.036-12.285 6.053-18.508 8.893 10.857-6.065 22.09-11.641 33.32-17.215 6.971-3.461 13.941-6.921 20.818-10.496.465-1.956.929-3.909 1.411-5.86-1.865-.232-3.519-.867-5.116-1.88a473.858 473.858 0 0 1-48.95-31.555c-2.339.698-4.891.9-7.361.857a48.87 48.87 0 0 1-6.953.864c.224 1.019.354 2.034.482 3.041Zm51.644 149.223c6.483-5.241 13.431-10.438 21.514-12.981-.57-3.073-.364-6.324.826-9.219-18.568-.009-30.544 1.676-42.31 17.034.104.304.422.472.702.62.341.18.626.33.405.661 4.45 5.668 12.826 9.534 18.863 3.885ZM274.454 483.481c1.259-3.334 3.356-6.357 6.807-7.785.328-.154.662-.297.995-.433a165.346 165.346 0 0 1-26.792-3.929c.143.608.266 1.227.389 1.848.374 1.883.751 3.787 1.727 5.476 4.457-1.358 7.266.828 9.636 4.311 1.788 2.059 5.692 3.748 7.238.512Zm-30.788-100.436a29.673 29.673 0 0 0-2.765 6.156c-1.393 4.363-1.796 9.015-1.254 13.574 32.638-20.393 72.906-25.501 110.509-18.385 9.449 1.346 19.064 2.047 28.559.756-1.501-8.443-.772-17.118-.053-25.674.145-1.724.289-3.442.415-5.152.391-5.779 1.042-12.02 5.094-16.556-20.837-3.705-41.64-10.379-59.43-21.862-25.105-16.47-29.094-36.63-34.224-62.555-.348-1.76-.701-3.547-1.067-5.361-2.396 19.94-6.58 32.657-12.201 49.738-1.062 3.229-2.176 6.614-3.338 10.232-3.807 10.787-8.678 20.685-13.509 30.504-6.902 14.026-13.724 27.891-17.254 43.952.32-.116.72.292.518.633Zm102.885-212.223c-27.01-1.913-44.399 1.557-50.75 26.499-8.793 35.862-.304 69.516 16.491 102.279 15.372 21.789 44.099 27.563 69.51 32.67l2.518.507c1.138-.914 4.039.122 6.805 1.109 1.991.711 3.911 1.397 5.054 1.313.051-.056.102-.117.153-.178a3.2 3.2 0 0 1 .332-.359c-.333.291-.331.29-.224.18.104-.106.308-.313.406-.457 1.566-2.287 2.7-4.883 3.794-7.412.002-.005.007-.019.012-.028a.06.06 0 0 1 .011-.025c1.248-2.928 2.365-5.212 3.482-7.495 1.116-2.281 2.231-4.562 3.479-7.487-50.271-10.803-89.486-46.674-75.624-96.926.07-.199.377-.171.38.05.009 1.861-.014 3.721-.038 5.581-.049 3.875-.098 7.749.149 11.627 1.678 36.394 23.756 53.713 58.128 68.453-3.725-22.817-11.934-39.632-19.739-55.619-10.897-22.32-21.007-43.028-17.028-76.209-2.162 1.2-4.714 1.727-7.301 1.927Zm55.196 9.124c-8.515 14.336-32.565 13.186-43.558 2.173a20.168 20.168 0 0 1-2.58-3.314c1.019 29.034 9.905 46.857 19.29 65.681 7.435 14.915 15.184 30.457 19.582 52.701.656-7.446 1.268-14.197 1.837-20.465 3.177-35.047 4.985-54.98 5.429-96.776Zm19.082 5.727c-4.782-3.559-9.905-6.698-15.424-9.047l-.139-.07a97.327 97.327 0 0 1-2.256-1.161c4.384 39.207 2.415 61.999-.233 92.651-.932 10.78-1.947 22.533-2.8 36.314a98.73 98.73 0 0 0 12.522 3.266c2.359.453 2.393 3.674.779 4.786-.151.272-.304-.174-.447-.593-.134-.391-.26-.758-.368-.491.005-.018.018-.045.033-.088-.449 1.057-.86 2.128-1.271 3.198 3.256.721 6.433 1.792 9.603 2.862 3.819 1.288 7.629 2.574 11.558 3.239-2.774-2.232-5.556-4.538-7.787-7.313-.815-1.134-1.515-1.36-2.351-1.631-.61-.197-1.292-.417-2.143-1.03-.04.892-.083 1.458-.118 1.921-.067.887-.106 1.396-.043 3.096.049 1.333-1.928 1.27-2.066 0-.232-1.482-.463-2.899-.685-4.271-1.223-7.527-2.228-13.719-2.126-21.974.007-3.31.006-6.462.004-9.487-.016-28.114-.026-45.186 7.189-75.266.062-.154.262-.121.282.037.271 2.073.185 4.156.1 6.239-.016.387-.032.774-.045 1.161-.475 7.396-.963 13.896-1.415 19.905-1.55 20.615-2.665 35.455-1.29 60.886.244 1.588.205 3.494.165 5.469-.087 4.232-.18 8.779 2.488 11.184 3.493 3.832 7.69 5.707 12.113 7.683 2.239 1.001 4.536 2.027 6.828 3.346.666.515 1.46.356 2.251.198a7.79 7.79 0 0 1 .883-.143c1.89-.325 3.735-.524 5.625-.073 4.577 1.106 7.745 4.909 10.421 8.468 3.516-2.067 7.558-2.613 11.607-3.16 2.935-.397 5.874-.794 8.619-1.772a10.392 10.392 0 0 1-.572-1.825c-49.881-25.006-48.934-40.31-44.953-88.901.06-2.877.128-5.418.191-7.746.278-10.31.444-16.446-.774-29.135-.919-4.56-4.493-6.1-8.287-7.734-1.94-.836-3.938-1.697-5.668-2.998Zm63.459 137.023c.695 1.466 1.544 3.254-.477 4.005-4.154 1.523-8.532 1.977-12.917 2.431-3.038.315-6.08.63-9.053 1.302.26.353.691.782 1.163 1.252 1.588 1.582 3.642 3.628 1.238 4.826.118.255.231.514.341.779 5.019-.636 10.059-1.151 15.099-1.667 3.345-.343 6.691-.685 10.031-1.062-2.804-3.949-4.29-8.672-4.473-13.471a2.67 2.67 0 0 1-1.06 1.379l.108.226Zm69.793 25.461c-16.867-12.606-35.226-26.327-57.466-25.413-2.447-.038-4.999-.04-7.451.232.295 3.067 1.42 6.056 3.04 8.69 20.041-3.264 37.746 8.173 51.052 21.726 6.292 4.707 14.552 5.301 22.178 5.524-.308-1.602-.621-3.208-.934-4.816-2.524.176-4.444-1.381-6.343-2.92-.826-.671-1.649-1.338-2.516-1.857l-1.56-1.166Zm-40.616-34.636c-1.968-4.261-8.797-2.177-12.159-.739-.729.419-1.314.882-1.742 1.505.985.332 1.67 1.333 1.659 2.311 4.19.657 8.456.983 12.701.902.139-1.271.1-2.357-.259-3.422.003.007-.215-.557-.2-.557Zm27.958 43.604a1.614 1.614 0 0 1-.102.1c-.645.572-1.284 1.179-1.928 1.79-.463.44-.928.881-1.4 1.315 2.864.624 5.831.306 8.741-.005l.578-.062c-2.089-.815-4.062-1.848-5.889-3.138Zm-118.867-5.613c.48-.181.964-.413 1.454-.673l-.651-.55c-1.476-1.249-2.951-2.496-4.476-3.679-.118 2.012 1.698 3.421 3.174 4.566l.199.155c.097.063.197.123.3.181Zm35.443-20.282c-2.786-3.772-5.649-7.648-10.664-7.747a9 9 0 0 1 .432.239c-2.65-.912-5.355-.545-8.045-.179-1.632.222-3.26.444-4.867.378-4.753-.386-9.082-2.041-13.409-3.696-3.623-1.386-7.244-2.77-11.11-3.409a435.846 435.846 0 0 0-1.372 3.741c-2.03 5.587-4.07 11.201-7.047 16.348 9.649-1.534 18.072 5.414 25.071 11.187l.844.696c.087-.038.175-.075.262-.111.739.83 1.719 1.328 2.679 1.815.159.08.317.161.473.242.011.561.584.752 1.125.932.245.081.483.161.659.271-.039.064-.075.13-.117.193 1.88.528 3.65-.103 5.495-.761l.297-.106c2.917-1.117 5.891-2.125 8.866-3.133 4.569-1.548 9.138-3.097 13.506-5.04 1.483-1.196.872-2.747.29-4.224-.518-1.315-1.013-2.571.015-3.465-1.2-1.216-2.285-2.685-3.383-4.171Zm-56.797 6.734c-1.19 1.595-2.729 2.82-4.966 2.918a8.597 8.597 0 0 1-1.651-.096 479.063 479.063 0 0 1-.413 7.093c-.617 9.788-1.239 19.657.625 29.311 7.379 1.603 14.861 2.768 22.401 3.304.311-8.891-.067-17.796-.753-26.661-2.172-2.609-3.724-6.962.174-8.898-4.606-3.346-9.953-5.429-15.417-6.971Zm-16.71 23.013c-.283 5.499-.566 11.002-.295 16.508-.052.844.094 1.87.245 2.94.364 2.56.763 5.375-1.422 6.571-.353 1.843-5.51 2.303-8.703 2.587-.822.073-1.513.135-1.959.205 7.996.698 15.697 2.857 23.393 5.014 3.458.969 6.914 1.938 10.396 2.774-3.916-3.747-7.675-8.788-6.774-14.438-8.31-1.121-10.315-2.018-10.311-10.709-.525-10.671-.056-21.953 4.122-31.927a399.684 399.684 0 0 0-5.873-1.626c-2.209 4.642-2.36 9.824-2.507 14.889-.024.83-.048 1.657-.081 2.477a537.598 537.598 0 0 1-.231 4.735ZM558.11 423.68c-3.627-20.624-1.523-30.907 10.532-48.093-.81-4.188-1.618-8.374-2.418-12.565-2.899.253-5.925-.125-8.894-.495-1.316-.164-2.621-.327-3.899-.433-1.506.11-3.037.312-4.576.514-4.426.582-8.927 1.174-13.139-.35-5.006 4.858-33.889-3.886-41.114-6.157-1.882-.624-3.78-1.218-5.678-1.812-8.003-2.504-16.021-5.013-22.985-9.834-1.376-.886-.09-3.067 1.295-2.176a70.578 70.578 0 0 0 9.647 5.214c13.042 4.838 26.666 7.669 40.276 10.497 3.231.672 6.461 1.343 9.682 2.041.725.059 1.492.268 2.266.48 1.734.474 3.507.958 4.924-.206a210.772 210.772 0 0 0 3.686-3.259c.558-.5 1.116-1.001 1.676-1.499-12.179-13.179-28.163-21.401-46.403-22.578 2.771 4.681-2.705 5.609-6.288 5.635-3.294.365-6.58.773-9.867 1.181-3.759.467-7.517.934-11.285 1.337.377 4.165-3.774 6.125-7.218 7.149-5.704 2.11-11.408 4.219-17.115 6.328-3.775 1.673-8.215 2.792-11.903.3-.355.184-.716.38-1.081.579-2.282 1.24-4.751 2.582-7.355 1.763.643 8.485.639 16.994.501 25.496-.013 1.124-.975 2.125-2.142 2.104-6.251-.108-12.505-.571-18.685-1.522 1.698 3.56 4.643 6.217 7.534 8.826a96.186 96.186 0 0 1 2.564 2.369c.523.535 1.121 1.033 1.723 1.535 1.351 1.126 2.722 2.268 3.307 3.881 23.231 5.854 46.399 14.084 66.353 27.366 9.036 6.149 5.795 16.476 2.001 24.705a1612.733 1612.733 0 0 1-11.885 29.025c22.206-13.069 44.902-25.329 67.59-37.584 7.879-4.257 15.758-8.512 23.614-12.802-3.272-.632-4.819-4.006-5.241-6.96Zm-94.995 78.959.237-.127c-.165.046-.334.09-.497.139a6.837 6.837 0 0 0-.041.095l-.032.072c.11-.061.221-.12.333-.179Zm109.569-62.231c-.169-.97-.338-1.941-.533-2.91-.43-2.093-.826-4.42-.201-6.525-2.175-.482-4.327-.756-6.542-.224-13.874 9.604-28.759 17.679-43.624 25.743-5.152 2.794-10.301 5.588-15.405 8.443a5337.248 5337.248 0 0 1-6.628 3.69c-9.628 5.352-19.259 10.706-28.693 16.383-2.151 2.822-3.514 6.367-4.875 9.91-.902 2.345-1.803 4.689-2.931 6.821l.978-.387c7.402-2.932 14.877-5.892 21.651-10.066.757-.156 2.651-1.317 4.693-2.569 3.119-1.912 6.583-4.035 6.862-3.109 17.879-8.803 35.478-18.13 52.924-27.732 3.639-1.996 7.269-4.007 10.888-6.039.939-.405 2.32-1.272 3.847-2.23 3.149-1.978 6.917-4.343 8.694-3.838-.48-1.774-.792-3.566-1.105-5.361Zm-139.93 194.758.207-.025-.143-.087c-.243.059-.484.124-.723.192.219-.028.439-.054.659-.08Zm-.993-3.63c.046-.186.128-.363.249-.524 35.711-43.34 77.446-81.463 119.043-119.459 11.151-10.185 22.291-20.362 33.304-30.627-.591-1.791-1.188-3.581-1.784-5.37-3.004-9.001-6.008-18.005-8.145-27.246-30.342 18.746-62.816 34.493-95.339 49.352 9.443 8.518 4.951 21.944-.833 31.222-5.367 9.614-10.793 19.196-16.219 28.777-2.628 4.641-5.256 9.281-7.877 13.926-6.599 10.942-12.503 22.24-18.407 33.54-2.463 4.713-4.926 9.426-7.439 14.114-.3.45-.599.963-.91 1.497-1.325 2.271-2.872 4.923-5.615 4.745 2.187 1.824 4.732 2.116 7.487 1.556 1.093-.125 1.297 1.633.257 1.861-.533.117-1.067.223-1.601.325l3.829 2.311Zm143.376-222.552-1.048-5.382-1.466-7.529c-1.157-5.937-2.313-11.874-3.463-17.812a306.101 306.101 0 0 1-1.673 3.341c-3.555 7.031-7.121 14.084-7.037 22.161-.159 5.552.551 11.119 1.338 16.605.045.308.082.645.122.998.184 1.638.407 3.633 1.492 4.749 1.02.732 2.265.505 3.538.272 1.025-.188 2.068-.378 3.025-.074.278.048.577.138.884.23.759.228 1.569.472 2.243.126 1.734-1.293 2.366-3.381 2.987-5.429.277-.917.553-1.827.924-2.653-.619-3.201-1.242-6.402-1.866-9.603Zm3.844 17.622a5.388 5.388 0 0 1-.229-.376c-.107.219-.22.434-.337.646a8.954 8.954 0 0 1 .566-.27Zm11.143 5.534-.041-.253a2.33 2.33 0 0 1-.231-.14l.363.911a29.479 29.479 0 0 1-.091-.518Zm81.692 9.572c-23.691 4.362-48.833-.518-71.591-7.412-2.838-.937-5.654-1.96-8.412-3.114 3.152 12.218 6.9 24.287 10.649 36.359 2.949 9.494 5.898 18.99 8.558 28.562 1.479.664 1.722 2.896.677 4.01 3.236.826 5.044 3.97 6.732 6.906.539.937 1.065 1.853 1.622 2.665 21.42-19.175 42.023-40.598 51.765-67.976Zm6.617-113.68c.313-.926-1.173-1.323-1.485-.402-6.827 22.431-12.613 45.245-17.634 68.131-.955 3.154 1.586 2.987 1.363 1.388 4.757-23.264 11.068-46.314 17.756-69.117ZM53.46 515.606a4.38 4.38 0 0 0 2.088 1.214c.323.084.651.137.985.167-.749-.221-1.464-.79-1.924-1.513a3.465 3.465 0 0 1-1.149.132Zm-3.852-14.408c.034-.504.08-1.008.136-1.51.024-.209.045-.433.068-.667.1-1.068.22-2.327.694-3.219-.603.232-1.203.472-1.806.718.367 1.545.65 3.11.908 4.678Z" clip-rule="evenodd"></path>
  <path fill="#fff" fill-rule="evenodd" d="M429.95 113.918c-1.721-20.952-6.962-39.51-31.588-40.3-11.113.099-22.457 2.456-32.676 6.818-24.84 12.436-32.721 57.879-10.837 76.172a.232.232 0 0 0-.007.391c4.521 3.037 9.546 5.536 14.579 7.636 13.407 5.66 29.19 8.118 42.864 1.979 20.866-8.866 21.179-33.537 17.665-52.696Z" clip-rule="evenodd"></path>
  <path fill="#000" fill-rule="evenodd" d="M471.022 104.152a6.23 6.23 0 0 0 1.821-2.917c.296-1.034.316-2.163.002-3.195-.336-1.107-1.061-1.988-.898-3.14.018-.113.041-.23.076-.348.627-2.169 2.169-3.734 1.617-6.137-.155-.679-.449-1.29-.858-1.77.046-.521.086-1.047.118-1.573.906-2.116.873-4.63-.092-6.713a25.322 25.322 0 0 0-.547-3.163c.115-.919-.045-1.93-.341-2.734-.52-1.415-1.162-2.808-1.86-4.179a1.533 1.533 0 0 0-.162-1.123c-.376-.64-.874-1.203-1.383-1.754-.36-.641-.722-1.278-1.081-1.906-.167-.289-.351-.61-.553-.948.552-1.024.847-2.02.263-3.224-.22-.452-.823-.785-1.32-.756-.543.033-1.09.057-1.641.078-1.03-1.242-2.197-2.356-3.447-2.998-1.266-1.071-2.55-2.123-3.799-3.197-.354-.306-.71-.611-1.063-.917l-.008-.025c-.261-.949-.554-1.885-.847-2.827-.183-.583-.239-1.194-.808-1.512-1.188-.664-3.016-.769-4.381-.882l-.406-.358c.62-1.647.509-3.398-.271-5.048-.265-.56-1.188-.814-1.695-.443-1.168.856-2.555 1.16-3.927 1.034-2.016-1.547-10.148-8.545-11.404-9.284-.016-.026-.028-.053-.045-.08a10.175 10.175 0 0 0-2.529-2.755l-.413-.43a5.237 5.237 0 0 1 1.134-2.615c.898-1.067-.198-2.439-1.452-1.88-.09.04-.181.08-.271.122-.964.43-2.03.896-3.141 1.29-.406-.153-.821-.29-1.199-.442l-4.046-1.624c-.666-.268-1.37-.494-2.014-.809-.225-1.492-1.722-2.47-3.278-2.42a2.91 2.91 0 0 1 .591-1.053c.8-.929-.268-2.652-1.412-1.825l-.243.172a19.58 19.58 0 0 1-.972.634 2.214 2.214 0 0 0-1.739-.039c-1.374.537-2.64 1.083-3.85 1.925-.049.034-.1.063-.149.096-.601-.725-1.554-1.209-2.412-1.204h-.047c-.641-.976-1.818-1.544-2.954-1.406.077-1.4-1.327-2.651-2.606-2.803-1.494-.177-2.841.689-3.289 2.144l-.374 1.216c-1.16-.585-2.385-1.033-3.664-1.256-2.912-.51-5.759.033-8.565.84-.281.08-.561.164-.841.246-.4-.463-.775-.937-1.134-1.38-.62-.763-2.107-.152-2.006.83.069.677-.206 1.164-.65 1.51-.487.072-.958.093-1.668.079-.939-.02-1.366-.048-2.347-.43-.458-.178-1.027-.646-1.294-1.066-1.021-1.609-3.617-2.042-4.853-.508-1.301-.568-2.944.216-3.666 1.322-.378.578-1.166.901-2.159 1.179a24.65 24.65 0 0 1-2.272.504c-.341-.462-1.059-.772-1.586-.384-.357.263-.703.533-1.045.81-2.635.363-5.257.376-7.77-.65-2.127-.87-4.081 1.504-3.73 3.496-.616.32-1.284.533-1.893.869a7.5 7.5 0 0 0-3.083 3.251c-.119.244-.226.491-.329.74a33.93 33.93 0 0 0-1.466 1.254l-2.389-1.224c-.597-.306-1.603-.093-1.721.698-.193 1.302-.662 2.382-1.331 3.286a54.434 54.434 0 0 0-6.274 3.848c-2.305.721-4.755 1.142-6.768 1.615-.69.163-1.066 1.062-.677 1.66l1.231 1.901a48.026 48.026 0 0 0-3.237 3.49c-2.826 3.356-5.191 7.034-7.307 10.93-.838.339-1.675.674-2.513 1.012-.807.326-1.171 1.262-.517 1.95.311.329.59.674.828 1.038-1.186 1.96-2.583 3.748-4.536 4.92a3.055 3.055 0 0 0-1.279 1.547c-.203.136-.404.28-.602.428-.552.416-.885 1.323-.238 1.861.454.38.88.831 1.241 1.33.078.283.158.568.238.851a21.077 21.077 0 0 0-4.458 5.78c-.269-.043-.544-.016-.768.15-2.026 1.494-2.086 3.876-1.271 6.004-.491 3.208-.175 6.495.772 9.603-1.246 1.242-1.996 3.035-2.302 4.763-.539 3.034-.576 7.702-.717 10.799-1.359 1.31-2.327 3.005-2.866 4.828l-1.362.676c-.403.2-.699.729-.674 1.174.115 2.156 1.005 3.859 2.187 5.402.418 1.189 1.038 2.286 1.85 3.337.562.722 1.111 1.413 1.595 2.191.05.078.08.151.103.201-.191.205-.349.546-.487.788-1.158 2.039-1.176 4.428.469 6.203-.619.506-.639 1.527-.093 2.153 3.559 4.059 6.525 8.995 11.463 11.151.022.037.042.075.06.112-1.001 2.404-1.136 3.654-.319 6.138.005.022.013.042.02.065.437 1.302 1.239 3.388 2.686 3.793.456.128.905.186 1.349.183 1.149 1.104 2.295 2.211 3.441 3.318.1.548.163 1.102.183 1.66.032.934.912 1.69 1.86 1.415.334-.098 2.179-1.888 2.518-1.878.17.17.336.34.501.513.61.639 1.455 1.645 1.525 2.314.135 1.259.963 2.702 2.299 2.957.502.508 1.304.661 1.919-.003.04-.042.08-.085.123-.122l.193-.023c.296.882.592 1.763.89 2.642.584 1.733 2.816 2.847 4.401 1.835.256.153.506.316.757.479.381.243.767.49 1.164.723l.065.193c.256.779 1.319 1.197 1.973.749a6.272 6.272 0 0 0 3.91-.05c.764-.261 1.494-.759 2.317-.827.051-.004.104 0 .156-.002.671 1.373 2.204 2.556 3.413 2.958 1.583.526 3.203.338 4.644-.307.389.777.877 1.512 1.461 2.192.323.375.908.295 1.241 0 .634-.561 1.263-1.124 1.891-1.689.455-.175.914-.385 1.393-.58 1.498-.611 3.141-.864 4.526-1.747a7.644 7.644 0 0 0 1.786-1.574 12.799 12.799 0 0 0 2.636-2.033c.396.003.81-.09 1.211-.292 1.678-.852 2.561-2.585 2.638-4.357a30.655 30.655 0 0 0 2.382-10.084 24.882 24.882 0 0 0-.005-3.443c-.06-.806-.263-1.345-.569-2.073a6.462 6.462 0 0 1-.268-.696c.017-.772.028-1.543.038-2.312a4.331 4.331 0 0 1 1.095-1.76c.8-.786 1.166-2.419.439-3.39l-1.419-1.886c.133-2.697.78-6.989-.655-7.439.058-.401.181-.797.251-1.195.336-1.913.136-3.623-.883-5.296a12.19 12.19 0 0 1-.541-.956l-.278-1.653a91.485 91.485 0 0 1-.404-2.566c-.063-1.097-.121-2.194-.183-3.293a315.425 315.425 0 0 0-.191-3.038c.028-.453.068-.906.126-1.359.343-2.702 1.449-3.701 3.365-5.579.301-.048.599-.1.892-.16 1.367-.283 2.796-.722 4.203-.564 1.527.171 2.894.829 4.378-.012.437-.251 1.397-.942 1.48-1.49a.352.352 0 0 1 .022-.088 3.39 3.39 0 0 1 .319-.03c1.178-.04 2.304.423 3.493.296 1.407-.151 2.666-.774 3.493-1.698 1.061.26 2.144.378 3.245.233.923-.12 1.75-.421 2.568-.867.594-.32.406-.413 1.053-.152 1.472.596 2.803 1.382 4.461.974.86-.211 1.602-.674 2.227-1.297.148-.146.398-.363.566-.569.788.398 2.769 1.297 3.095 1.377.922.226 1.9.191 2.798-.11.66-.22 1.467-.821 2.046-.944.75-.16 2.415.882 3.31 1.24 1.57.628 3.233.783 4.822.135.547-.223 1.61-1.112 2.019-1.104.665.818 2.52 5.298 3.077 6.933 2.254 6.611 2.838 27.251 1.798 32.517-.04.155-.083.308-.126.463-1.278 4.58-2.61 9.238-4.749 13.505-2.019 4.021-4.81 7.642-8.814 9.838-4.153 2.278-9.027 2.877-13.697 2.569-3.006-.195-5.963-.799-8.871-1.555-1.52-.393-3.027-.831-4.527-1.287-.654-.198-1.319-.383-1.961-.614-1.133-.408-1.727-.44-2.813.083-.988.476-1.241 1.88-.727 2.764.837 1.443 2.372 1.543 3.854 1.963 1.509.429 3.024.839 4.549 1.207 2.921.702 5.89 1.24 8.884 1.488 5.361.448 10.885-.243 15.765-2.579a20.93 20.93 0 0 0 1.598-.854c-.191.265-.384.531-.58.794-.541.728-.14 1.968.62 2.366.24.125.481.245.724.363.033.078.068.155.108.233.695 1.392 2.149 2.213 3.631 2.569 1.761.421 3.732.123 5.522.07l4.977-.15c.392-.01.783-.023 1.174-.035l5.908-.178c1.755-.053 1.672.083 3.32-.619a4.915 4.915 0 0 0 1.843-1.354c.316-.14.622-.301.915-.483.943-.586 1.781-1.373 2.553-2.239 1.312.413 3.15.03 3.405-1.615.412-2.632 3.837-3.756 5.437-5.659 1.291-1.535 2.214-3.546 2.166-5.476 3.255-1.573 5.026-5.717 5.439-9.233.193-1.63.163-3.375.442-5.033.123-.132.233-.273.326-.423a35.044 35.044 0 0 0 2.156-4.071 5.633 5.633 0 0 1 2.952-1.055c2.638-.152 3.134-3.705.619-4.562l-.035-.012c.682-1.703.624-3.719-.203-5.331.035-.176.067-.348.1-.524 1.412-1.515 2.222-3.621 2.132-5.671a6.932 6.932 0 0 1 2.156-1.022c1.221-.335 1.229-1.823.326-2.489a4.224 4.224 0 0 1-.915-.926c.624-1.873.378-4.039-.898-5.577l2.43-3.11c.537-.686.82-1.85 0-2.501a392.74 392.74 0 0 0-1.575-1.25Z" clip-rule="evenodd"></path>
  <path fill="#000" fill-rule="evenodd" d="M404.141 151.974a10.205 10.205 0 0 1-4.29-3.295c-.382-.509-.481-1.046-.401-1.537.09-.552.417-1.053.864-1.389.448-.337 1.008-.503 1.549-.418.471.073.939.331 1.31.864l.077.107a6.774 6.774 0 0 0 2.476 2.075c.936.45 1.982.66 3.065.538 2.062-.233 3.483-1.347 4.994-2.859.188-.191.375-.388.563-.588a.887.887 0 0 1 .467-.359 1.024 1.024 0 0 1 1.152.393c.115.17.181.38.16.621-.139 1.567-.959 2.966-2.125 4.064-1.294 1.22-3.01 2.064-4.626 2.36-1.78.326-3.593.092-5.235-.577Zm6.075-24.178c1.893 1.149 4.779 3.829 2.742 6.679-2.398 2.512-5.851-.369-7.552-1.671-1.577-1.01-3.35 1.587-1.886 2.766 12.293 9.088 17.282-7.474 7.654-9.125-1.061-.182-1.454.995-.958 1.351Zm-22.03-10.572c.21-2.593 4.165-3.182 4.558-.616.353 2.299-.062 4.41-1.099 6.48-.991 1.977-3.481 1.055-3.669-.746-.253-2.413.08-3.505.21-5.118Zm30.107-1.148c.552-.721 1.348-1.214 2.302-.935 2.98.869 2.102 5.094 1.055 7.151-.569 1.117-2.407 1.4-3.238.416-1.354-1.603-2.002-4.805-.281-6.385.047-.082.099-.164.162-.247Zm-26.69-10.199.471-.082c1.456-.252 3.267-.494 4.297.675.546.62.735 1.773 0 2.366-1.292 1.044-2.72.64-4.268.728a16.987 16.987 0 0 0-3.731.635c-2.697.769-4.893 2.174-7.196 3.717-.302.202-.611-.184-.467-.466 1.33-2.6 3.906-4.736 6.486-6.038 1.377-.694 2.884-1.271 4.408-1.535Zm23.974-1.165.36.074c3.921.818 9.016 2.453 10.873 6.299.07.544-.004.661-.065.737l-.02.025c-.051.065-.091.155-.327.229-.065-.016-.131-.032-.198-.05-.851-.223-1.525-.529-2.177-.848l-.707-.348c-.82-.401-1.647-.788-2.524-1.074a29.86 29.86 0 0 0-5.75-1.268c-.424-.049-.832-.192-1.154-.437a1.735 1.735 0 0 1-.645-.981c-.138-.553-.098-.972.199-1.471.224-.375.543-.635.911-.784.374-.152.8-.188 1.224-.103Z" clip-rule="evenodd"></path>
</svg>
